<mxfile host="app.diagrams.net" agent="Mozilla/5.0 (Windows NT 10.0; Win64; x64; rv:132.0) Gecko/20100101 Firefox/132.0" version="24.8.3">
  <diagram name="Seite-1" id="57vSUFvoUFBMkL-geE9z">
    <mxGraphModel dx="875" dy="448" grid="1" gridSize="10" guides="1" tooltips="1" connect="1" arrows="1" fold="1" page="1" pageScale="1" pageWidth="827" pageHeight="1169" math="0" shadow="0">
      <root>
        <mxCell id="0" />
        <mxCell id="1" parent="0" />
        <mxCell id="hjHqGuJiPRqZqSn0VLlT-1" value="" style="rounded=0;whiteSpace=wrap;html=1;fillColor=#CCFFCC;strokeColor=#82b366;" vertex="1" parent="1">
          <mxGeometry x="220" y="300" width="140" height="90" as="geometry" />
        </mxCell>
        <mxCell id="hjHqGuJiPRqZqSn0VLlT-2" value="" style="rounded=0;whiteSpace=wrap;html=1;fillColor=#d5e8d4;strokeColor=#82b366;" vertex="1" parent="1">
          <mxGeometry x="220" y="210" width="140" height="90" as="geometry" />
        </mxCell>
        <mxCell id="hjHqGuJiPRqZqSn0VLlT-3" value="" style="rounded=0;whiteSpace=wrap;html=1;fillColor=#fff2cc;strokeColor=#d6b656;" vertex="1" parent="1">
          <mxGeometry x="220" y="120" width="140" height="90" as="geometry" />
        </mxCell>
        <mxCell id="hjHqGuJiPRqZqSn0VLlT-10" value="" style="rounded=0;whiteSpace=wrap;html=1;fillColor=#d5e8d4;strokeColor=#82b366;" vertex="1" parent="1">
          <mxGeometry x="360" y="300" width="130" height="90" as="geometry" />
        </mxCell>
        <mxCell id="hjHqGuJiPRqZqSn0VLlT-11" value="" style="rounded=0;whiteSpace=wrap;html=1;fillColor=#fff2cc;strokeColor=#d6b656;" vertex="1" parent="1">
          <mxGeometry x="360" y="210" width="130" height="90" as="geometry" />
        </mxCell>
        <mxCell id="hjHqGuJiPRqZqSn0VLlT-12" value="" style="rounded=0;whiteSpace=wrap;html=1;fillColor=#ffe6cc;strokeColor=#d79b00;" vertex="1" parent="1">
          <mxGeometry x="360" y="120" width="140" height="90" as="geometry" />
        </mxCell>
        <mxCell id="hjHqGuJiPRqZqSn0VLlT-13" value="" style="rounded=0;whiteSpace=wrap;html=1;fillColor=#fff2cc;strokeColor=#d6b656;" vertex="1" parent="1">
          <mxGeometry x="490" y="300" width="140" height="90" as="geometry" />
        </mxCell>
        <mxCell id="hjHqGuJiPRqZqSn0VLlT-14" value="" style="rounded=0;whiteSpace=wrap;html=1;fillColor=#ffe6cc;strokeColor=#d79b00;" vertex="1" parent="1">
          <mxGeometry x="490" y="210" width="140" height="90" as="geometry" />
        </mxCell>
        <mxCell id="hjHqGuJiPRqZqSn0VLlT-15" value="" style="rounded=0;whiteSpace=wrap;html=1;fillColor=#f8cecc;strokeColor=#b85450;" vertex="1" parent="1">
          <mxGeometry x="490" y="120" width="140" height="90" as="geometry" />
        </mxCell>
        <mxCell id="hjHqGuJiPRqZqSn0VLlT-16" value="" style="endArrow=classic;html=1;rounded=0;strokeWidth=2;entryX=1;entryY=0.039;entryDx=0;entryDy=0;entryPerimeter=0;" edge="1" parent="1" target="hjHqGuJiPRqZqSn0VLlT-22">
          <mxGeometry width="50" height="50" relative="1" as="geometry">
            <mxPoint x="210" y="390" as="sourcePoint" />
            <mxPoint x="210" y="180" as="targetPoint" />
          </mxGeometry>
        </mxCell>
        <mxCell id="hjHqGuJiPRqZqSn0VLlT-17" value="" style="endArrow=classic;html=1;rounded=0;strokeWidth=2;entryX=0.792;entryY=0.022;entryDx=0;entryDy=0;entryPerimeter=0;" edge="1" parent="1" target="hjHqGuJiPRqZqSn0VLlT-19">
          <mxGeometry width="50" height="50" relative="1" as="geometry">
            <mxPoint x="220" y="400" as="sourcePoint" />
            <mxPoint x="580" y="400" as="targetPoint" />
          </mxGeometry>
        </mxCell>
        <mxCell id="hjHqGuJiPRqZqSn0VLlT-18" value="Selten" style="text;html=1;align=center;verticalAlign=middle;resizable=0;points=[];autosize=1;strokeColor=none;fillColor=none;" vertex="1" parent="1">
          <mxGeometry x="210" y="398" width="60" height="30" as="geometry" />
        </mxCell>
        <mxCell id="hjHqGuJiPRqZqSn0VLlT-19" value="HÃ¤ufig" style="text;html=1;align=center;verticalAlign=middle;resizable=0;points=[];autosize=1;strokeColor=none;fillColor=none;" vertex="1" parent="1">
          <mxGeometry x="580" y="398" width="60" height="30" as="geometry" />
        </mxCell>
        <mxCell id="hjHqGuJiPRqZqSn0VLlT-20" value="Wahrscheinlichkeit" style="text;html=1;align=center;verticalAlign=middle;resizable=0;points=[];autosize=1;strokeColor=none;fillColor=none;fontStyle=1" vertex="1" parent="1">
          <mxGeometry x="340" y="398" width="120" height="30" as="geometry" />
        </mxCell>
        <mxCell id="hjHqGuJiPRqZqSn0VLlT-21" value="Gering" style="text;html=1;align=center;verticalAlign=middle;resizable=0;points=[];autosize=1;strokeColor=none;fillColor=none;" vertex="1" parent="1">
          <mxGeometry x="150" y="368" width="60" height="30" as="geometry" />
        </mxCell>
        <mxCell id="hjHqGuJiPRqZqSn0VLlT-22" value="Schwer" style="text;html=1;align=center;verticalAlign=middle;resizable=0;points=[];autosize=1;strokeColor=none;fillColor=none;" vertex="1" parent="1">
          <mxGeometry x="150" y="120" width="60" height="30" as="geometry" />
        </mxCell>
        <mxCell id="hjHqGuJiPRqZqSn0VLlT-23" value="Schweregrad" style="text;html=1;align=center;verticalAlign=middle;resizable=0;points=[];autosize=1;strokeColor=none;fillColor=none;rotation=-90;fontStyle=1" vertex="1" parent="1">
          <mxGeometry x="135" y="240" width="90" height="30" as="geometry" />
        </mxCell>
        <mxCell id="hjHqGuJiPRqZqSn0VLlT-24" value="" style="ellipse;whiteSpace=wrap;html=1;aspect=fixed;fillColor=#000000;" vertex="1" parent="1">
          <mxGeometry x="710" y="280" width="10" height="10" as="geometry" />
        </mxCell>
      </root>
    </mxGraphModel>
  </diagram>
</mxfile>
